<svg width="164" height="158" viewBox="0 0 164 158" fill="none" xmlns="http://www.w3.org/2000/svg">
<path d="M35.14 0C30.8038 0 26.6451 1.72258 23.5788 4.7888C20.5126 7.85502 18.79 12.0137 18.79 16.35V131.7C18.7899 132.983 19.1337 134.243 19.7856 135.348C20.4375 136.453 21.3737 137.364 22.4967 137.985C23.6198 138.605 24.8886 138.914 26.1713 138.878C27.454 138.842 28.7035 138.463 29.79 137.78L73.79 110.12H147.59C151.926 110.12 156.085 108.397 159.151 105.331C162.217 102.265 163.94 98.1063 163.94 93.77V16.35C163.94 12.0137 162.217 7.85502 159.151 4.7888C156.085 1.72258 151.926 0 147.59 0H35.14Z" fill="#575757"/>
<path d="M16.35 18.79C12.0137 18.79 7.85502 20.5126 4.7888 23.5788C1.72258 26.645 1.92989e-08 30.8037 1.92989e-08 35.14V150.49C-9.40473e-05 151.773 0.343688 153.033 0.995576 154.138C1.64746 155.243 2.58363 156.154 3.70667 156.774C4.82971 157.395 6.09858 157.704 7.38125 157.668C8.66392 157.632 9.91351 157.253 11 156.57L55 128.91H128.83C133.166 128.91 137.325 127.187 140.391 124.121C143.457 121.055 145.18 116.896 145.18 112.56V35.14C145.18 30.8037 143.457 26.645 140.391 23.5788C137.325 20.5126 133.166 18.79 128.83 18.79H16.35Z" fill="#3D3D3D"/>
<path d="M86.1399 76.4C84.9799 77.71 83.98 78.95 82.86 80.07C80.31 82.63 77.6999 85.14 75.0899 87.66C73.2699 89.43 71.8699 89.44 70.0899 87.66C66.7299 84.41 63.3899 81.13 60.0299 77.86C59.6899 77.53 59.3299 77.21 58.8899 76.79C58.4499 77.18 58.0499 77.5 57.6799 77.86L33.8899 100.39C33.3799 100.88 32.8899 101.39 32.3499 101.85C30.7699 103.22 29.1399 103.21 27.8899 101.85C26.6399 100.49 26.9599 99.07 28.4399 97.66L43.4399 83.46L53.8899 73.61C54.1399 73.38 54.3599 73.1 55.0099 72.4C54.5063 72.187 54.0297 71.9151 53.5899 71.59C45.2433 63.49 36.9199 55.3933 28.6199 47.3C28.1688 46.8806 27.7446 46.433 27.3499 45.96C26.9762 45.4879 26.7838 44.8976 26.8076 44.2959C26.8315 43.6943 27.07 43.121 27.4799 42.68C27.8756 42.1402 28.4558 41.7645 29.1103 41.6244C29.7648 41.4843 30.4479 41.5895 31.0299 41.92C31.5788 42.2901 32.0881 42.7157 32.5499 43.19L71.1699 80.76L72.5199 82.05C72.9799 81.65 73.41 81.3 73.8 80.92L112.52 43.21C112.893 42.8539 113.287 42.52 113.7 42.21C113.969 41.9782 114.281 41.8023 114.619 41.6927C114.957 41.5831 115.313 41.5421 115.667 41.5719C116.021 41.6017 116.365 41.7017 116.68 41.8663C116.995 42.0308 117.274 42.2564 117.5 42.53C117.766 42.7664 117.98 43.0567 118.126 43.3816C118.272 43.7065 118.347 44.0587 118.347 44.415C118.347 44.7713 118.272 45.1235 118.126 45.4484C117.98 45.7733 117.766 46.0636 117.5 46.3C115.21 48.63 112.86 50.9 110.5 53.18L91.4999 71.68C91.1899 71.98 90.91 72.31 90.33 72.93C90.8397 73.2283 91.3276 73.5625 91.7899 73.93C100.13 81.81 108.463 89.7 116.79 97.6C118.79 99.53 118.37 102.01 115.88 102.77C115.337 102.906 114.766 102.885 114.234 102.708C113.703 102.531 113.233 102.205 112.88 101.77C110.633 99.6567 108.39 97.5333 106.15 95.4L87.6999 77.81C87.3199 77.45 86.8899 77.11 86.1399 76.4Z" fill="white"/>
</svg>
