<svg width="44" height="20" viewBox="0 0 44 20" fill="none" xmlns="http://www.w3.org/2000/svg">
<path d="M16.2 7H17.32L17.48 7.96H17.56C17.6773 7.78933 17.864 7.60267 18.12 7.4C18.6427 7.02667 19.2293 6.84 19.88 6.84C20.68 6.84 21.3307 7.096 21.832 7.608C22.344 8.10933 22.6 8.76 22.6 9.56V15H21V9.56C21 9.112 20.856 8.74933 20.568 8.472C20.2907 8.184 19.928 8.04 19.48 8.04C19.0853 8.04 18.6853 8.2 18.28 8.52C18.1093 8.66933 17.9493 8.82933 17.8 9V15H16.2V7ZM25.7188 5.72C25.4414 5.72 25.2121 5.62933 25.0308 5.448C24.8494 5.26667 24.7588 5.03733 24.7588 4.76C24.7588 4.48267 24.8494 4.25333 25.0308 4.072C25.2121 3.89067 25.4414 3.8 25.7188 3.8C25.9961 3.8 26.2254 3.89067 26.4068 4.072C26.5881 4.25333 26.6788 4.48267 26.6788 4.76C26.6788 5.03733 26.5881 5.26667 26.4068 5.448C26.2254 5.62933 25.9961 5.72 25.7188 5.72ZM24.9188 15V7H26.5188V15H24.9188ZM32.0388 15.16C30.9294 15.16 30.0654 14.808 29.4468 14.104C28.8281 13.4 28.5188 12.3653 28.5188 11C28.5188 9.63467 28.8174 8.6 29.4148 7.896C30.0228 7.192 30.8441 6.84 31.8788 6.84C32.5828 6.84 33.2228 6.98933 33.7988 7.288C34.0761 7.416 34.3161 7.56 34.5188 7.72L33.9588 8.68H33.7988C33.6601 8.57333 33.4841 8.456 33.2708 8.328C32.8228 8.08267 32.4121 7.96 32.0388 7.96C31.4414 7.96 30.9721 8.2 30.6308 8.68C30.2894 9.16 30.1188 9.93333 30.1188 11C30.1188 12.0773 30.2948 12.856 30.6468 13.336C31.0094 13.8053 31.5268 14.04 32.1988 14.04C32.5934 14.04 33.0041 13.9227 33.4308 13.688C33.6548 13.56 33.8308 13.4373 33.9588 13.32H34.1188L34.6788 14.28C34.4868 14.44 34.2468 14.5893 33.9588 14.728C33.4041 15.016 32.7641 15.16 32.0388 15.16ZM39.24 15.16C38.1627 15.16 37.32 14.808 36.712 14.104C36.104 13.4 35.8 12.3653 35.8 11C35.8 9.63467 36.104 8.6 36.712 7.896C37.32 7.192 38.1627 6.84 39.24 6.84C40.3067 6.84 41.144 7.192 41.752 7.896C42.3707 8.6 42.68 9.63467 42.68 11C42.68 12.3653 42.3707 13.4 41.752 14.104C41.144 14.808 40.3067 15.16 39.24 15.16ZM39.24 14.04C39.7947 14.04 40.2373 13.8 40.568 13.32C40.9093 12.8293 41.08 12.056 41.08 11C41.08 9.944 40.9093 9.176 40.568 8.696C40.2373 8.20533 39.7947 7.96 39.24 7.96C38.6853 7.96 38.2373 8.20533 37.896 8.696C37.5653 9.176 37.4 9.944 37.4 11C37.4 12.056 37.5653 12.8293 37.896 13.32C38.2373 13.8 38.6853 14.04 39.24 14.04Z" fill="url(#paint0_linear_73_60)"/>
<rect x="0.5" y="4" width="13" height="13" rx="2" fill="url(#paint1_linear_73_60)"/>
<path d="M3.75 13.3889V6.88888M10.25 13.75V6.52777M3.75 6.52777L10.6111 14.1111" stroke="#9F9F9F" stroke-width="1.2"/>
<circle cx="3.75002" cy="13.75" r="1.08333" fill="#D9D9D9"/>
<circle cx="3.75002" cy="6.52778" r="1.08333" fill="#D9D9D9"/>
<circle cx="10.25" cy="13.75" r="1.08333" fill="#D9D9D9"/>
<circle cx="10.25" cy="6.52778" r="1.08333" fill="#D9D9D9"/>
<defs>
<linearGradient id="paint0_linear_73_60" x1="13.4464" y1="6.19048" x2="41.6471" y2="19.334" gradientUnits="userSpaceOnUse">
<stop stop-color="#061F26"/>
<stop offset="0.490385" stop-color="#555555"/>
<stop offset="1" stop-color="#0C0C0C"/>
</linearGradient>
<linearGradient id="paint1_linear_73_60" x1="0.861111" y1="4.72222" x2="13.1389" y2="17" gradientUnits="userSpaceOnUse">
<stop stop-color="#001B22"/>
<stop offset="0.509311" stop-color="#555555"/>
<stop offset="1"/>
</linearGradient>
</defs>
</svg>
