<svg width="1041" height="174" viewBox="0 0 1041 174" fill="none" xmlns="http://www.w3.org/2000/svg">
<path d="M312.13 9.14001V130.8H288.27V79.1L254.1 128.81H254L219.71 79.1V130.8H195.85V9.14001H197.17L254 87.57L310.8 9.14001H312.13Z" fill="black"/>
<path d="M420.62 42.43V130.8H399.41L398.41 121.08C391.64 129.25 381.92 133.74 370.21 133.74C342.96 133.74 327.21 109.81 327.21 86.69C327.21 60.77 345.47 39.48 370.44 39.48C381.78 39.48 391.57 43.75 398.44 52L399.44 42.43H420.62ZM397.94 86.43C397.94 71.33 386.6 62.12 374.15 62.12C367.725 62.1253 361.565 64.6798 357.023 69.2227C352.48 73.7655 349.925 79.9254 349.92 86.35C349.92 98.72 359.35 111.02 374.15 111.02C387.63 111.06 397.94 100.9 397.94 86.47V86.43Z" fill="black"/>
<path d="M520.05 83V130.8H497.37V83C497.37 67.54 491.62 62.16 480.28 62.16C469.09 62.16 462.46 69.75 462.46 83V130.8H439.78V42.43H461L461.88 51.19C468.29 44.27 477.12 40.19 487.88 40.19C504.8 40.22 520.05 48.54 520.05 83Z" fill="black"/>
<path d="M619.55 42.43L567 163.94H543.18L560.78 123.29L526.61 42.43H551.14L571.61 98.17L595.76 42.43H619.55Z" fill="black"/>
<path d="M709.25 130.8L674.35 83.89C673.35 83.96 672.29 84.04 671.26 84.04H643.42V130.8H636.28V12.09H669.12C690.99 12.09 708.89 28.95 708.89 49.65C708.89 65.11 697.55 78.37 682.01 82.65L718.31 130.81L709.25 130.8ZM669.56 77.8C687.16 77.8 701.56 64.98 701.56 49.52C701.56 32.73 687.12 19.18 669.56 19.18H643.42V77.78L669.56 77.8Z" fill="black"/>
<path d="M807.73 89.71L806.62 89.63V89.71H731.73C733.2 111.5 749.84 126.38 768.84 126.38C779.96 126.38 791.75 121.22 797.56 114.97L802.28 119.68C795.8 127.56 781.8 133.16 768.92 133.16C744.69 133.16 724.81 113.49 724.81 86.54C724.81 60.03 743.95 40.07 768.18 40.07C791.08 40.07 808.61 57.89 808.61 82.93C808.682 85.2226 808.385 87.5118 807.73 89.71ZM731.65 83.82H802V82.82C802 64.82 789.92 46.82 768.42 46.82C748.37 46.85 732.83 62.61 731.65 83.82Z" fill="black"/>
<path d="M912.75 86.69C912.75 115.11 891.25 133.23 868.64 133.23C854.5 133.23 841.02 126.82 834.17 114.74V163.94H827.4V42.43H833.88L834.17 57.16V59.29C841.1 47.36 854.65 40.15 868.71 40.15C891.17 40.15 912.75 58.26 912.75 86.69ZM905.9 86.69C905.9 62.16 886.83 47.07 867.9 47.07C851.7 47.07 836.01 58.07 834.17 75.64V97.51C835.94 115.85 851.55 126.31 867.9 126.31C886.83 126.31 905.9 111.21 905.9 86.69Z" fill="black"/>
<path d="M931.54 9.29001H938.46V130.8H931.54V9.29001Z" fill="black"/>
<path d="M1035.89 42.43L983.89 163.94H976.67L991.67 129.03L954.78 42.43H962L995 121L1028.66 42.43H1035.89Z" fill="black"/>
<path d="M40.2499 7.70001C35.9136 7.70001 31.7549 9.4226 28.6887 12.4888C25.6225 15.555 23.8999 19.7137 23.8999 24.05V139.4C23.8998 140.683 24.2436 141.943 24.8955 143.048C25.5474 144.153 26.4835 145.064 27.6066 145.685C28.7296 146.305 29.9985 146.614 31.2812 146.578C32.5638 146.542 33.8134 146.163 34.8999 145.48L78.8999 117.82H152.7C157.036 117.82 161.195 116.097 164.261 113.031C167.327 109.965 169.05 105.806 169.05 101.47V24.05C169.05 19.7137 167.327 15.555 164.261 12.4888C161.195 9.4226 157.036 7.70001 152.7 7.70001H40.2499Z" fill="#575757"/>
<path d="M21.4599 26.49C17.1236 26.49 12.9649 28.2126 9.89867 31.2788C6.83245 34.345 5.10986 38.5037 5.10986 42.84V158.19C5.10977 159.473 5.45355 160.733 6.10544 161.838C6.75733 162.943 7.6935 163.854 8.81654 164.474C9.93958 165.095 11.2084 165.404 12.4911 165.368C13.7738 165.332 15.0234 164.953 16.1099 164.27L60.1099 136.61H133.94C138.276 136.61 142.435 134.887 145.501 131.821C148.567 128.755 150.29 124.596 150.29 120.26V42.84C150.29 38.5037 148.567 34.345 145.501 31.2788C142.435 28.2126 138.276 26.49 133.94 26.49H21.4599Z" fill="#3D3D3D"/>
<path d="M91.2498 84.1C90.0898 85.41 89.0898 86.65 87.9698 87.77C85.4198 90.33 82.8098 92.84 80.1998 95.36C78.3798 97.13 76.9798 97.14 75.1998 95.36C71.8398 92.11 68.4998 88.83 65.1398 85.56C64.7998 85.23 64.4398 84.91 63.9998 84.49C63.5598 84.88 63.1598 85.2 62.7898 85.56L38.9998 108.09C38.4898 108.58 37.9998 109.09 37.4598 109.55C35.8798 110.92 34.2498 110.91 32.9998 109.55C31.7498 108.19 32.0698 106.77 33.5498 105.36L48.5498 91.16L58.9998 81.31C59.2498 81.08 59.4698 80.8 60.1198 80.1C59.6162 79.887 59.1395 79.6151 58.6998 79.29C50.3531 71.19 42.0298 63.0933 33.7298 55C33.2786 54.5806 32.8544 54.133 32.4598 53.66C32.086 53.1879 31.8937 52.5976 31.9175 51.9959C31.9414 51.3943 32.1798 50.821 32.5898 50.38C32.9855 49.8402 33.5657 49.4645 34.2202 49.3244C34.8747 49.1843 35.5578 49.2895 36.1398 49.62C36.6887 49.9901 37.198 50.4157 37.6598 50.89L76.2798 88.46L77.6298 89.75C78.0898 89.35 78.5198 89 78.9098 88.62L117.63 50.91C118.003 50.5539 118.397 50.22 118.81 49.91C119.079 49.6782 119.391 49.5023 119.729 49.3927C120.067 49.2832 120.423 49.2421 120.777 49.2719C121.131 49.3017 121.475 49.4018 121.79 49.5663C122.105 49.7308 122.383 49.9564 122.61 50.23C122.876 50.4664 123.09 50.7567 123.236 51.0816C123.382 51.4065 123.457 51.7588 123.457 52.115C123.457 52.4713 123.382 52.8235 123.236 53.1484C123.09 53.4733 122.876 53.7636 122.61 54C120.32 56.33 117.97 58.6 115.61 60.88L96.6098 79.38C96.2998 79.68 96.0198 80.01 95.4398 80.63C95.9495 80.9283 96.4374 81.2625 96.8998 81.63C105.24 89.51 113.573 97.4 121.9 105.3C123.9 107.23 123.48 109.71 120.99 110.47C120.446 110.606 119.875 110.585 119.344 110.408C118.812 110.231 118.343 109.905 117.99 109.47C115.743 107.357 113.5 105.233 111.26 103.1L92.8098 85.51C92.4298 85.15 91.9998 84.81 91.2498 84.1Z" fill="white"/>
</svg>
